<?xml version="1.0" encoding="utf-8"?>
<!-- Generator: Adobe Illustrator 24.1.3, SVG Export Plug-In . SVG Version: 6.00 Build 0)  -->
<svg version="1.1" id="Calque_1" xmlns="http://www.w3.org/2000/svg" xmlns:xlink="http://www.w3.org/1999/xlink" x="0px" y="0px"
	 viewBox="0 0 100 100" style="enable-background:new 0 0 100 100;" xml:space="preserve">
<style type="text/css">
	.st0{fill:#020202;}
</style>
<path class="st0" d="M85.14,25.62c-4.8,0-8.97,2.31-11.6,5.91c-2.57-3.6-6.8-5.91-11.6-5.91c-7.77,0-14.11,6.25-14.22,13.79v22.01
	c0,3.42-2.02,7.82-6.73,7.82c-3.65,0-6.44-4.93-5.89-5.34c5.14-3.88,8.51-10.08,8.51-17c0-11.65-9.65-21.11-21.54-21.11
	c-11.82,0-21.42,9.46-21.42,21.11c0,11.71,9.6,21.22,21.42,21.22c2.91,0,5.66-0.56,8.28-1.58c-0.14,0.05,1.52,2.79,1.68,3.01
	c0.88,1.22,1.94,2.32,3.19,3.19c1.62,1.12,3.56,1.62,5.54,1.66c1.96,0.04,3.9-0.37,5.58-1.38c3.73-2.24,6.25-6.15,6.69-10.45
	c0.03-0.25,0.04-0.51,0.06-0.76v-22.4c0.06-4.67,4.06-8.5,8.85-8.5c4.91,0,8.85,3.83,8.91,8.56v28.77h5.37V39.47
	c0.11-4.73,4-8.56,8.91-8.56s8.85,3.83,8.85,8.73v28.6h5.37v-28.6C99.36,31.87,92.96,25.62,85.14,25.62z M22.07,62.83
	c-2.46,0-4.8-0.56-6.91-1.52h0.11c0-3.77,3.09-6.64,6.8-6.64c3.83,0,6.97,2.87,6.97,6.64h0.11C27.04,62.27,24.59,62.83,22.07,62.83z
	 M33.67,57.93c-1.37-4.95-6.06-8.56-11.6-8.56c-5.43,0-10.05,3.6-11.54,8.56c-2.8-2.81-4.51-6.76-4.51-11.03
	c0-8.67,7.25-15.82,16.05-15.82c8.91,0,16.17,7.09,16.17,15.82C38.24,51.24,36.58,55.12,33.67,57.93z"/>
</svg>
